<svg width="289" height="73" viewBox="0 0 289 73" fill="none" xmlns="http://www.w3.org/2000/svg">
<path d="M5 23.9V36.5C7.3262 31.7402 10.8453 27.4452 15.3237 23.9H5Z" fill="#F7A429"/>
<path d="M6.75436 49.1L15.3912 37.368L17.9215 51.032L44.9117 14.436H55.8764C40.2299 30.1921 27.7029 47.9135 18.765 66.936H10.1281L6.75436 49.1Z" fill="#3A297B"/>
<path d="M44.6418 34.232L35.7687 45.768L40.2221 68H49.0276C60.6231 45.4594 75.7316 24.2786 93.9662 5H83.2377L50.3434 48.064L44.6418 34.232Z" fill="#F7A429"/>
<path d="M125.436 25.85L120.246 47H113.016L110.106 34.04L107.136 47H99.9062L94.7762 25.85H101.136L103.596 40.31L106.926 25.85H113.376L116.616 40.19L119.076 25.85H125.436ZM143.411 38.39C143.411 38.85 143.381 39.31 143.321 39.77H132.191C132.251 40.69 132.501 41.38 132.941 41.84C133.401 42.28 133.981 42.5 134.681 42.5C135.661 42.5 136.361 42.06 136.781 41.18H143.051C142.791 42.34 142.281 43.38 141.521 44.3C140.781 45.2 139.841 45.91 138.701 46.43C137.561 46.95 136.301 47.21 134.921 47.21C133.261 47.21 131.781 46.86 130.481 46.16C129.201 45.46 128.191 44.46 127.451 43.16C126.731 41.86 126.371 40.33 126.371 38.57C126.371 36.81 126.731 35.29 127.451 34.01C128.171 32.71 129.171 31.71 130.451 31.01C131.751 30.31 133.241 29.96 134.921 29.96C136.581 29.96 138.051 30.3 139.331 30.98C140.611 31.66 141.611 32.64 142.331 33.92C143.051 35.18 143.411 36.67 143.411 38.39ZM137.411 36.92C137.411 36.2 137.171 35.64 136.691 35.24C136.211 34.82 135.611 34.61 134.891 34.61C134.171 34.61 133.581 34.81 133.121 35.21C132.661 35.59 132.361 36.16 132.221 36.92H137.411ZM151.098 32.51C151.558 31.71 152.208 31.09 153.048 30.65C153.888 30.19 154.878 29.96 156.018 29.96C157.358 29.96 158.568 30.31 159.648 31.01C160.748 31.71 161.608 32.71 162.228 34.01C162.868 35.31 163.188 36.83 163.188 38.57C163.188 40.31 162.868 41.84 162.228 43.16C161.608 44.46 160.748 45.46 159.648 46.16C158.568 46.86 157.358 47.21 156.018 47.21C154.878 47.21 153.888 46.99 153.048 46.55C152.208 46.09 151.558 45.46 151.098 44.66V47H145.218V24.8H151.098V32.51ZM157.218 38.57C157.218 37.47 156.918 36.62 156.318 36.02C155.738 35.4 155.018 35.09 154.158 35.09C153.298 35.09 152.568 35.4 151.968 36.02C151.388 36.64 151.098 37.49 151.098 38.57C151.098 39.67 151.388 40.53 151.968 41.15C152.568 41.77 153.298 42.08 154.158 42.08C155.018 42.08 155.738 41.77 156.318 41.15C156.918 40.51 157.218 39.65 157.218 38.57ZM186.998 30.02C189.118 30.02 190.778 30.66 191.978 31.94C193.198 33.22 193.808 34.97 193.808 37.19V47H187.928V37.97C187.928 37.07 187.678 36.37 187.178 35.87C186.678 35.37 185.998 35.12 185.138 35.12C184.278 35.12 183.598 35.37 183.098 35.87C182.598 36.37 182.348 37.07 182.348 37.97V47H176.468V37.97C176.468 37.07 176.218 36.37 175.718 35.87C175.238 35.37 174.568 35.12 173.708 35.12C172.828 35.12 172.138 35.37 171.638 35.87C171.138 36.37 170.888 37.07 170.888 37.97V47H165.008V30.17H170.888V32.39C171.408 31.67 172.078 31.1 172.898 30.68C173.738 30.24 174.698 30.02 175.778 30.02C177.018 30.02 178.118 30.29 179.078 30.83C180.058 31.37 180.828 32.13 181.388 33.11C181.988 32.19 182.778 31.45 183.758 30.89C184.738 30.31 185.818 30.02 186.998 30.02ZM212.51 38.39C212.51 38.85 212.48 39.31 212.42 39.77H201.29C201.35 40.69 201.6 41.38 202.04 41.84C202.5 42.28 203.08 42.5 203.78 42.5C204.76 42.5 205.46 42.06 205.88 41.18H212.15C211.89 42.34 211.38 43.38 210.62 44.3C209.88 45.2 208.94 45.91 207.8 46.43C206.66 46.95 205.4 47.21 204.02 47.21C202.36 47.21 200.88 46.86 199.58 46.16C198.3 45.46 197.29 44.46 196.55 43.16C195.83 41.86 195.47 40.33 195.47 38.57C195.47 36.81 195.83 35.29 196.55 34.01C197.27 32.71 198.27 31.71 199.55 31.01C200.85 30.31 202.34 29.96 204.02 29.96C205.68 29.96 207.15 30.3 208.43 30.98C209.71 31.66 210.71 32.64 211.43 33.92C212.15 35.18 212.51 36.67 212.51 38.39ZM206.51 36.92C206.51 36.2 206.27 35.64 205.79 35.24C205.31 34.82 204.71 34.61 203.99 34.61C203.27 34.61 202.68 34.81 202.22 35.21C201.76 35.59 201.46 36.16 201.32 36.92H206.51Z" fill="#3A297B"/>
<path d="M223.666 36.9C225.146 36.9 226.44 37.2 227.546 37.8C228.666 38.3867 229.526 39.2133 230.126 40.28C230.726 41.3467 231.026 42.5667 231.026 43.94C231.026 45.3 230.72 46.5133 230.106 47.58C229.506 48.6467 228.646 49.4867 227.526 50.1C226.42 50.7 225.133 51 223.666 51H218.086V36.9H223.666ZM223.366 47.54C224.513 47.54 225.413 47.2267 226.066 46.6C226.72 45.9733 227.046 45.0867 227.046 43.94C227.046 42.78 226.72 41.8867 226.066 41.26C225.413 40.62 224.513 40.3 223.366 40.3H222.006V47.54H223.366ZM234.373 38.74C233.68 38.74 233.12 38.5533 232.693 38.18C232.28 37.7933 232.073 37.3133 232.073 36.74C232.073 36.1533 232.28 35.6667 232.693 35.28C233.12 34.8933 233.68 34.7 234.373 34.7C235.053 34.7 235.6 34.8933 236.013 35.28C236.44 35.6667 236.653 36.1533 236.653 36.74C236.653 37.3133 236.44 37.7933 236.013 38.18C235.6 38.5533 235.053 38.74 234.373 38.74ZM236.313 39.78V51H232.393V39.78H236.313ZM242.286 39.64C243.046 39.64 243.706 39.7933 244.266 40.1C244.839 40.4067 245.279 40.82 245.586 41.34V39.78H249.506V50.88C249.506 51.9333 249.306 52.88 248.906 53.72C248.506 54.5733 247.879 55.2533 247.026 55.76C246.186 56.2667 245.119 56.52 243.826 56.52C242.092 56.52 240.706 56.1133 239.666 55.3C238.626 54.4867 238.032 53.38 237.886 51.98H241.746C241.826 52.34 242.026 52.62 242.346 52.82C242.666 53.02 243.079 53.12 243.586 53.12C244.919 53.12 245.586 52.3733 245.586 50.88V49.44C245.279 49.96 244.839 50.3733 244.266 50.68C243.706 50.9867 243.046 51.14 242.286 51.14C241.392 51.14 240.579 50.9067 239.846 50.44C239.126 49.9733 238.552 49.3067 238.126 48.44C237.712 47.56 237.506 46.54 237.506 45.38C237.506 44.22 237.712 43.2067 238.126 42.34C238.552 41.4733 239.126 40.8067 239.846 40.34C240.579 39.8733 241.392 39.64 242.286 39.64ZM245.586 45.38C245.586 44.66 245.386 44.0933 244.986 43.68C244.599 43.2667 244.119 43.06 243.546 43.06C242.959 43.06 242.472 43.2667 242.086 43.68C241.699 44.08 241.506 44.6467 241.506 45.38C241.506 46.1 241.699 46.6733 242.086 47.1C242.472 47.5133 242.959 47.72 243.546 47.72C244.119 47.72 244.599 47.5133 244.986 47.1C245.386 46.6867 245.586 46.1133 245.586 45.38ZM253.319 38.74C252.626 38.74 252.066 38.5533 251.639 38.18C251.226 37.7933 251.019 37.3133 251.019 36.74C251.019 36.1533 251.226 35.6667 251.639 35.28C252.066 34.8933 252.626 34.7 253.319 34.7C253.999 34.7 254.546 34.8933 254.959 35.28C255.386 35.6667 255.599 36.1533 255.599 36.74C255.599 37.3133 255.386 37.7933 254.959 38.18C254.546 38.5533 253.999 38.74 253.319 38.74ZM255.259 39.78V51H251.339V39.78H255.259ZM263.712 47.66V51H262.012C259.145 51 257.712 49.58 257.712 46.74V43.04H256.332V39.78H257.712V37.06H261.652V39.78H263.692V43.04H261.652V46.8C261.652 47.1067 261.718 47.3267 261.852 47.46C261.998 47.5933 262.238 47.66 262.572 47.66H263.712ZM264.47 45.38C264.47 44.22 264.676 43.2067 265.09 42.34C265.516 41.4733 266.09 40.8067 266.81 40.34C267.543 39.8733 268.356 39.64 269.25 39.64C270.023 39.64 270.69 39.7933 271.25 40.1C271.81 40.4067 272.243 40.82 272.55 41.34V39.78H276.47V51H272.55V49.44C272.243 49.96 271.803 50.3733 271.23 50.68C270.67 50.9867 270.01 51.14 269.25 51.14C268.356 51.14 267.543 50.9067 266.81 50.44C266.09 49.9733 265.516 49.3067 265.09 48.44C264.676 47.56 264.47 46.54 264.47 45.38ZM272.55 45.38C272.55 44.66 272.35 44.0933 271.95 43.68C271.563 43.2667 271.083 43.06 270.51 43.06C269.923 43.06 269.436 43.2667 269.05 43.68C268.663 44.08 268.47 44.6467 268.47 45.38C268.47 46.1 268.663 46.6733 269.05 47.1C269.436 47.5133 269.923 47.72 270.51 47.72C271.083 47.72 271.563 47.5133 271.95 47.1C272.35 46.6867 272.55 46.1133 272.55 45.38ZM282.223 36.2V51H278.303V36.2H282.223Z" fill="#F7A429"/>
</svg>
