<?xml version="1.0" standalone="no"?>
<!DOCTYPE svg PUBLIC "-//W3C//DTD SVG 20010904//EN"
 "http://www.w3.org/TR/2001/REC-SVG-20010904/DTD/svg10.dtd">
<svg version="1.0" xmlns="http://www.w3.org/2000/svg"
 width="700.000000pt" height="700.000000pt" viewBox="0 0 700.000000 700.000000"
 preserveAspectRatio="xMidYMid meet">
<metadata>
Created by potrace 1.14, written by Peter Selinger 2001-2017
</metadata>
<g transform="translate(0.000000,700.000000) scale(0.100000,-0.100000)"
fill="#000000" stroke="none">
<path d="M5881 6003 c-7 -14 -203 -272 -248 -328 -5 -5 -94 -122 -199 -260
-341 -447 -586 -768 -653 -855 -36 -47 -95 -124 -131 -171 -144 -191 -260
-342 -556 -729 -170 -223 -352 -461 -404 -529 l-94 -124 -18 39 c-16 35 -110
265 -303 734 -37 91 -71 171 -75 178 -6 13 -83 -84 -439 -548 -36 -47 -92
-121 -126 -165 -57 -74 -61 -83 -54 -115 5 -19 10 -48 13 -65 3 -16 8 -39 10
-50 7 -35 108 -538 112 -560 2 -11 11 -55 20 -98 8 -42 17 -87 20 -100 6 -34
13 -67 24 -122 12 -57 18 -89 25 -125 3 -14 12 -59 20 -100 8 -41 25 -126 37
-187 l22 -113 313 0 c172 0 313 4 313 8 0 8 117 233 187 362 94 171 141 255
208 370 40 69 81 139 91 157 217 374 592 954 873 1348 74 105 139 195 143 200
4 6 77 102 161 215 308 413 510 662 917 1134 90 105 170 196 176 201 7 6 33
35 59 65 27 30 103 113 169 184 67 71 127 137 134 147 13 18 2 19 -362 19
-347 0 -376 -1 -385 -17z"/>
<path d="M3083 5183 c-72 -98 -230 -313 -352 -478 -122 -165 -330 -448 -464
-629 -133 -180 -296 -401 -361 -490 -66 -88 -152 -206 -192 -261 -137 -186
-265 -360 -277 -375 -7 -8 -34 -45 -61 -82 -27 -37 -51 -67 -52 -65 -1 1 -14
70 -29 152 -15 83 -29 159 -31 170 -7 38 -24 130 -29 160 -3 17 -10 50 -15 75
-5 25 -11 59 -14 75 -8 55 -57 309 -60 312 -1 1 -21 -23 -44 -55 -23 -31 -50
-68 -59 -81 -10 -13 -126 -170 -259 -350 l-240 -326 13 -75 c8 -41 25 -134 39
-207 14 -73 27 -145 30 -160 3 -15 11 -59 19 -98 7 -38 18 -97 24 -130 6 -33
13 -71 16 -85 3 -14 13 -70 24 -125 19 -97 33 -180 32 -190 0 -2 5 -19 10 -37
5 -18 12 -53 15 -78 3 -25 10 -49 15 -55 6 -6 122 -10 306 -10 l296 0 93 190
c245 498 564 1051 829 1440 131 191 220 321 227 330 4 6 69 92 143 193 165
223 318 418 484 617 68 83 127 152 130 155 3 3 21 23 40 45 88 104 155 179
272 306 135 146 183 197 286 302 l96 97 -384 0 -385 0 -131 -177z"/>
<path d="M425 4692 c-3 -3 -5 -201 -5 -441 l0 -436 48 90 c135 253 341 506
577 710 44 38 81 72 83 75 3 7 -696 9 -703 2z"/>
</g>
</svg>
